<svg width="143" height="105" viewBox="0 0 143 105" fill="none" xmlns="http://www.w3.org/2000/svg">
<path fill-rule="evenodd" clip-rule="evenodd" d="M15.8466 23.7724C16.19 23.3308 16.6352 22.898 17.1929 22.4885C18.7905 21.3154 21.1336 20.5 23.8335 20.5H119.167C121.867 20.5 124.21 21.3154 125.807 22.4885C126.365 22.898 126.81 23.3308 127.154 23.7724L71.5002 52.3776L15.8466 23.7724ZM9.45367 23.0972C9.01032 23.4431 8.63323 23.8884 8.35927 24.4215C7.58457 25.9287 7.85971 27.6988 8.91686 28.8974V78.75C8.91686 82.3475 10.9248 85.3528 13.6418 87.3478C16.364 89.3466 19.9792 90.5 23.8335 90.5H119.167C123.021 90.5 126.636 89.3466 129.359 87.3478C132.076 85.3528 134.084 82.3475 134.084 78.75V28.8974C135.141 27.6988 135.416 25.9287 134.641 24.4215C134.367 23.8884 133.99 23.4431 133.547 23.0972C132.775 20.8917 131.236 19.0307 129.359 17.6522C126.636 15.6534 123.021 14.5 119.167 14.5H23.8335C19.9792 14.5 16.364 15.6534 13.6418 17.6522C11.7644 19.0307 10.2254 20.8917 9.45367 23.0972ZM128.084 32.2894V78.75C128.084 79.965 127.41 81.3347 125.807 82.5116C124.21 83.6846 121.867 84.5 119.167 84.5H23.8335C21.1336 84.5 18.7905 83.6846 17.1929 82.5116C15.5901 81.3347 14.9169 79.965 14.9169 78.75V32.2894L69.6716 60.4326C70.8193 61.0225 72.1811 61.0225 73.3287 60.4326L128.084 32.2894Z" fill="#3545D8"/>
</svg>
