<svg width="1118" height="506" viewBox="0 0 1118 506" fill="none" xmlns="http://www.w3.org/2000/svg">
<g filter="url(#filter0_d_314_40)">
<rect width="1110" height="498" fill="white"/>
</g>
<g filter="url(#filter1_d_314_40)">
<path d="M41 408.499C41 402.976 45.4772 398.499 51 398.499H283C288.523 398.499 293 402.976 293 408.499V448.91C293 454.433 288.523 458.91 283 458.91H51C45.4772 458.91 41 454.433 41 448.91V408.499Z" fill="#1987B7"/>
</g>
<path d="M145.238 430.503H138.488V435.073H146.41V437.897H134.973V420.835H146.387V423.683H138.488V427.749H145.238V430.503ZM151.367 425.218L151.473 426.683C152.379 425.55 153.594 424.983 155.117 424.983C156.461 424.983 157.461 425.378 158.117 426.167C158.773 426.956 159.109 428.136 159.125 429.706V437.897H155.738V429.788C155.738 429.069 155.582 428.55 155.27 428.229C154.957 427.901 154.438 427.737 153.711 427.737C152.758 427.737 152.043 428.144 151.566 428.956V437.897H148.18V425.218H151.367ZM166.449 433.761L168.805 425.218H172.344L168.066 437.897H164.832L160.555 425.218H164.094L166.449 433.761ZM177.418 437.897H174.02V425.218H177.418V437.897ZM173.82 421.937C173.82 421.429 173.988 421.011 174.324 420.683C174.668 420.354 175.133 420.19 175.719 420.19C176.297 420.19 176.758 420.354 177.102 420.683C177.445 421.011 177.617 421.429 177.617 421.937C177.617 422.452 177.441 422.874 177.09 423.202C176.746 423.53 176.289 423.694 175.719 423.694C175.148 423.694 174.688 423.53 174.336 423.202C173.992 422.874 173.82 422.452 173.82 421.937ZM187.566 437.897C187.41 437.593 187.297 437.214 187.227 436.761C186.406 437.675 185.34 438.132 184.027 438.132C182.785 438.132 181.754 437.772 180.934 437.054C180.121 436.335 179.715 435.429 179.715 434.335C179.715 432.991 180.211 431.96 181.203 431.241C182.203 430.522 183.645 430.159 185.527 430.151H187.086V429.425C187.086 428.839 186.934 428.37 186.629 428.019C186.332 427.667 185.859 427.491 185.211 427.491C184.641 427.491 184.191 427.628 183.863 427.901C183.543 428.175 183.383 428.55 183.383 429.026H179.996C179.996 428.292 180.223 427.612 180.676 426.987C181.129 426.362 181.77 425.874 182.598 425.522C183.426 425.163 184.355 424.983 185.387 424.983C186.949 424.983 188.188 425.378 189.102 426.167C190.023 426.948 190.484 428.05 190.484 429.472V434.968C190.492 436.171 190.66 437.081 190.988 437.698V437.897H187.566ZM184.766 435.542C185.266 435.542 185.727 435.433 186.148 435.214C186.57 434.987 186.883 434.687 187.086 434.312V432.132H185.82C184.125 432.132 183.223 432.718 183.113 433.89L183.102 434.089C183.102 434.511 183.25 434.858 183.547 435.132C183.844 435.405 184.25 435.542 184.766 435.542ZM200.211 428.394C199.75 428.331 199.344 428.3 198.992 428.3C197.711 428.3 196.871 428.733 196.473 429.601V437.897H193.086V425.218H196.285L196.379 426.729C197.059 425.565 198 424.983 199.203 424.983C199.578 424.983 199.93 425.034 200.258 425.136L200.211 428.394Z" fill="white"/>
<g filter="url(#filter2_i_314_40)">
<rect x="41" y="89.333" width="503" height="49.7508" fill="#F1EFEF"/>
</g>
<rect x="41.5" y="89.833" width="502" height="48.7508" stroke="black"/>
<g filter="url(#filter3_i_314_40)">
<rect x="41" y="218.448" width="1028" height="139.776" fill="#F1EFEF"/>
</g>
<rect x="41.5" y="218.948" width="1027" height="138.776" stroke="black"/>
<g filter="url(#filter4_i_314_40)">
<rect x="41" y="153.298" width="1028" height="48.5662" fill="#F1EFEF"/>
</g>
<rect x="41.5" y="153.798" width="1027" height="47.5662" stroke="black"/>
<path d="M73.5781 180.51H68.4141L67.2422 183.697H66.2344L70.5391 172.322H71.4531L75.7578 183.697H74.7578L73.5781 180.51ZM68.7109 179.689H73.2734L70.9922 173.494L68.7109 179.689ZM82.2812 181.549C82.2812 181.085 82.0938 180.713 81.7188 180.432C81.349 180.15 80.7891 179.932 80.0391 179.775C79.2891 179.614 78.7057 179.432 78.2891 179.229C77.8776 179.02 77.5703 178.768 77.3672 178.471C77.1693 178.174 77.0703 177.814 77.0703 177.393C77.0703 176.726 77.349 176.176 77.9062 175.744C78.4635 175.307 79.1771 175.088 80.0469 175.088C80.9896 175.088 81.7448 175.322 82.3125 175.791C82.8854 176.255 83.1719 176.861 83.1719 177.611H82.2344C82.2344 177.117 82.026 176.705 81.6094 176.377C81.1979 176.049 80.6771 175.885 80.0469 175.885C79.4323 175.885 78.9375 176.023 78.5625 176.299C78.1927 176.57 78.0078 176.924 78.0078 177.361C78.0078 177.783 78.1615 178.111 78.4688 178.346C78.7812 178.575 79.3464 178.786 80.1641 178.979C80.987 179.171 81.6016 179.377 82.0078 179.596C82.4193 179.814 82.724 180.077 82.9219 180.385C83.1198 180.692 83.2188 181.064 83.2188 181.502C83.2188 182.215 82.9297 182.786 82.3516 183.213C81.7786 183.64 81.0286 183.854 80.1016 183.854C79.1172 183.854 78.3177 183.617 77.7031 183.143C77.0938 182.663 76.7891 182.059 76.7891 181.33H77.7266C77.763 181.877 77.9922 182.304 78.4141 182.611C78.8411 182.913 79.4036 183.064 80.1016 183.064C80.7526 183.064 81.2786 182.921 81.6797 182.635C82.0807 182.348 82.2812 181.986 82.2812 181.549ZM90.3906 181.549C90.3906 181.085 90.2031 180.713 89.8281 180.432C89.4583 180.15 88.8984 179.932 88.1484 179.775C87.3984 179.614 86.8151 179.432 86.3984 179.229C85.987 179.02 85.6797 178.768 85.4766 178.471C85.2786 178.174 85.1797 177.814 85.1797 177.393C85.1797 176.726 85.4583 176.176 86.0156 175.744C86.5729 175.307 87.2865 175.088 88.1562 175.088C89.099 175.088 89.8542 175.322 90.4219 175.791C90.9948 176.255 91.2812 176.861 91.2812 177.611H90.3438C90.3438 177.117 90.1354 176.705 89.7188 176.377C89.3073 176.049 88.7865 175.885 88.1562 175.885C87.5417 175.885 87.0469 176.023 86.6719 176.299C86.3021 176.57 86.1172 176.924 86.1172 177.361C86.1172 177.783 86.2708 178.111 86.5781 178.346C86.8906 178.575 87.4557 178.786 88.2734 178.979C89.0964 179.171 89.7109 179.377 90.1172 179.596C90.5286 179.814 90.8333 180.077 91.0312 180.385C91.2292 180.692 91.3281 181.064 91.3281 181.502C91.3281 182.215 91.0391 182.786 90.4609 183.213C89.888 183.64 89.138 183.854 88.2109 183.854C87.2266 183.854 86.4271 183.617 85.8125 183.143C85.2031 182.663 84.8984 182.059 84.8984 181.33H85.8359C85.8724 181.877 86.1016 182.304 86.5234 182.611C86.9505 182.913 87.513 183.064 88.2109 183.064C88.862 183.064 89.388 182.921 89.7891 182.635C90.1901 182.348 90.3906 181.986 90.3906 181.549ZM98.875 182.627C98.3125 183.445 97.4141 183.854 96.1797 183.854C95.2786 183.854 94.5938 183.593 94.125 183.072C93.6562 182.546 93.4167 181.77 93.4062 180.744V175.244H94.3359V180.627C94.3359 182.236 94.987 183.041 96.2891 183.041C97.6432 183.041 98.5 182.481 98.8594 181.361V175.244H99.7969V183.697H98.8906L98.875 182.627ZM103.125 175.244L103.156 176.689C103.474 176.169 103.87 175.773 104.344 175.502C104.818 175.226 105.341 175.088 105.914 175.088C106.82 175.088 107.495 175.343 107.938 175.854C108.38 176.364 108.604 177.13 108.609 178.15V183.697H107.68V178.143C107.674 177.387 107.513 176.825 107.195 176.455C106.883 176.085 106.38 175.9 105.688 175.9C105.109 175.9 104.596 176.083 104.148 176.447C103.706 176.807 103.378 177.294 103.164 177.908V183.697H102.234V175.244H103.125ZM112.484 173.08V175.244H114.234V176.01H112.484V181.643C112.484 182.111 112.568 182.46 112.734 182.689C112.906 182.919 113.19 183.033 113.586 183.033C113.742 183.033 113.995 183.007 114.344 182.955L114.383 183.721C114.138 183.809 113.805 183.854 113.383 183.854C112.742 183.854 112.276 183.669 111.984 183.299C111.693 182.924 111.547 182.374 111.547 181.65V176.01H109.992V175.244H111.547V173.08H112.484ZM115.5 179.346C115.5 178.533 115.656 177.801 115.969 177.15C116.286 176.499 116.732 175.994 117.305 175.635C117.883 175.27 118.536 175.088 119.266 175.088C120.391 175.088 121.302 175.484 122 176.275C122.698 177.062 123.047 178.106 123.047 179.408V179.604C123.047 180.421 122.888 181.158 122.57 181.814C122.258 182.465 121.815 182.968 121.242 183.322C120.669 183.676 120.016 183.854 119.281 183.854C118.161 183.854 117.25 183.46 116.547 182.674C115.849 181.882 115.5 180.835 115.5 179.533V179.346ZM116.438 179.604C116.438 180.614 116.698 181.445 117.219 182.096C117.745 182.742 118.432 183.064 119.281 183.064C120.125 183.064 120.807 182.742 121.328 182.096C121.854 181.445 122.117 180.588 122.117 179.525V179.346C122.117 178.7 121.997 178.109 121.758 177.572C121.518 177.036 121.182 176.622 120.75 176.33C120.318 176.033 119.823 175.885 119.266 175.885C118.432 175.885 117.753 176.213 117.227 176.869C116.701 177.52 116.438 178.374 116.438 179.432V179.604Z" fill="black" fill-opacity="0.65"/>
<path d="M68.7109 236.288L72.9062 246.327L77.1172 236.288H78.3984V247.663H77.4375V242.709L77.5156 237.631L73.2812 247.663H72.5391L68.3203 237.67L68.3984 242.678V247.663H67.4375V236.288H68.7109ZM84.3359 247.819C83.6172 247.819 82.9661 247.642 82.3828 247.288C81.8047 246.933 81.3542 246.441 81.0312 245.811C80.7083 245.176 80.5469 244.465 80.5469 243.678V243.342C80.5469 242.53 80.7031 241.798 81.0156 241.147C81.3333 240.496 81.7734 239.986 82.3359 239.616C82.8984 239.241 83.5078 239.053 84.1641 239.053C85.1901 239.053 86.0026 239.405 86.6016 240.108C87.2057 240.806 87.5078 241.762 87.5078 242.975V243.499H81.4766V243.678C81.4766 244.637 81.75 245.436 82.2969 246.077C82.849 246.712 83.5417 247.03 84.375 247.03C84.875 247.03 85.3151 246.939 85.6953 246.756C86.0807 246.574 86.4297 246.282 86.7422 245.881L87.3281 246.327C86.6406 247.321 85.6432 247.819 84.3359 247.819ZM84.1641 239.85C83.4609 239.85 82.8672 240.108 82.3828 240.624C81.9036 241.139 81.612 241.832 81.5078 242.702H86.5781V242.6C86.5521 241.788 86.3203 241.126 85.8828 240.616C85.4453 240.105 84.8724 239.85 84.1641 239.85ZM90.2188 239.209L90.25 240.655C90.5677 240.134 90.9635 239.738 91.4375 239.467C91.9115 239.191 92.4349 239.053 93.0078 239.053C93.9141 239.053 94.5885 239.308 95.0312 239.819C95.474 240.329 95.6979 241.095 95.7031 242.116V247.663H94.7734V242.108C94.7682 241.353 94.6068 240.79 94.2891 240.42C93.9766 240.051 93.474 239.866 92.7812 239.866C92.2031 239.866 91.6901 240.048 91.2422 240.413C90.7995 240.772 90.4714 241.259 90.2578 241.874V247.663H89.3281V239.209H90.2188ZM103.188 245.514C103.188 245.051 103 244.678 102.625 244.397C102.255 244.116 101.695 243.897 100.945 243.741C100.195 243.579 99.612 243.397 99.1953 243.194C98.7839 242.986 98.4766 242.733 98.2734 242.436C98.0755 242.139 97.9766 241.78 97.9766 241.358C97.9766 240.691 98.2552 240.142 98.8125 239.709C99.3698 239.272 100.083 239.053 100.953 239.053C101.896 239.053 102.651 239.288 103.219 239.756C103.792 240.22 104.078 240.827 104.078 241.577H103.141C103.141 241.082 102.932 240.67 102.516 240.342C102.104 240.014 101.583 239.85 100.953 239.85C100.339 239.85 99.8438 239.988 99.4688 240.264C99.099 240.535 98.9141 240.889 98.9141 241.327C98.9141 241.749 99.0677 242.077 99.375 242.311C99.6875 242.54 100.253 242.751 101.07 242.944C101.893 243.137 102.508 243.342 102.914 243.561C103.326 243.78 103.63 244.043 103.828 244.35C104.026 244.657 104.125 245.03 104.125 245.467C104.125 246.181 103.836 246.751 103.258 247.178C102.685 247.605 101.935 247.819 101.008 247.819C100.023 247.819 99.224 247.582 98.6094 247.108C98 246.629 97.6953 246.025 97.6953 245.295H98.6328C98.6693 245.842 98.8984 246.269 99.3203 246.577C99.7474 246.879 100.31 247.03 101.008 247.03C101.659 247.03 102.185 246.887 102.586 246.6C102.987 246.314 103.188 245.952 103.188 245.514ZM111.57 247.663C111.477 247.397 111.417 247.004 111.391 246.483C111.062 246.91 110.643 247.241 110.133 247.475C109.628 247.704 109.091 247.819 108.523 247.819C107.711 247.819 107.052 247.592 106.547 247.139C106.047 246.686 105.797 246.113 105.797 245.42C105.797 244.597 106.138 243.946 106.82 243.467C107.508 242.988 108.464 242.749 109.688 242.749H111.383V241.788C111.383 241.183 111.195 240.709 110.82 240.366C110.451 240.017 109.909 239.842 109.195 239.842C108.544 239.842 108.005 240.009 107.578 240.342C107.151 240.676 106.938 241.077 106.938 241.545L106 241.538C106 240.866 106.312 240.285 106.938 239.795C107.562 239.301 108.331 239.053 109.242 239.053C110.185 239.053 110.927 239.29 111.469 239.764C112.016 240.233 112.297 240.889 112.312 241.733V245.733C112.312 246.551 112.398 247.163 112.57 247.569V247.663H111.57ZM108.633 246.991C109.258 246.991 109.815 246.84 110.305 246.538C110.799 246.236 111.159 245.832 111.383 245.327V243.467H109.711C108.779 243.478 108.049 243.65 107.523 243.983C106.997 244.311 106.734 244.764 106.734 245.342C106.734 245.816 106.909 246.209 107.258 246.522C107.612 246.834 108.07 246.991 108.633 246.991ZM114.438 243.358C114.438 242.035 114.729 240.988 115.312 240.217C115.901 239.441 116.698 239.053 117.703 239.053C118.854 239.053 119.729 239.512 120.328 240.428L120.375 239.209H121.25V247.491C121.25 248.579 120.945 249.441 120.336 250.077C119.727 250.712 118.901 251.03 117.859 251.03C117.271 251.03 116.708 250.897 116.172 250.631C115.641 250.371 115.221 250.022 114.914 249.584L115.438 249.022C116.099 249.834 116.885 250.241 117.797 250.241C118.578 250.241 119.188 250.009 119.625 249.545C120.062 249.087 120.289 248.449 120.305 247.631V246.569C119.706 247.402 118.833 247.819 117.688 247.819C116.708 247.819 115.922 247.428 115.328 246.647C114.734 245.866 114.438 244.811 114.438 243.483V243.358ZM115.383 243.522C115.383 244.6 115.599 245.452 116.031 246.077C116.464 246.696 117.073 247.006 117.859 247.006C119.01 247.006 119.826 246.491 120.305 245.459V241.53C120.086 240.988 119.771 240.577 119.359 240.295C118.948 240.009 118.453 239.866 117.875 239.866C117.089 239.866 116.477 240.176 116.039 240.795C115.602 241.41 115.383 242.319 115.383 243.522ZM126.961 247.819C126.242 247.819 125.591 247.642 125.008 247.288C124.43 246.933 123.979 246.441 123.656 245.811C123.333 245.176 123.172 244.465 123.172 243.678V243.342C123.172 242.53 123.328 241.798 123.641 241.147C123.958 240.496 124.398 239.986 124.961 239.616C125.523 239.241 126.133 239.053 126.789 239.053C127.815 239.053 128.628 239.405 129.227 240.108C129.831 240.806 130.133 241.762 130.133 242.975V243.499H124.102V243.678C124.102 244.637 124.375 245.436 124.922 246.077C125.474 246.712 126.167 247.03 127 247.03C127.5 247.03 127.94 246.939 128.32 246.756C128.706 246.574 129.055 246.282 129.367 245.881L129.953 246.327C129.266 247.321 128.268 247.819 126.961 247.819ZM126.789 239.85C126.086 239.85 125.492 240.108 125.008 240.624C124.529 241.139 124.237 241.832 124.133 242.702H129.203V242.6C129.177 241.788 128.945 241.126 128.508 240.616C128.07 240.105 127.497 239.85 126.789 239.85ZM132.805 239.209L132.836 240.584C133.148 240.074 133.539 239.691 134.008 239.436C134.477 239.181 134.997 239.053 135.57 239.053C136.904 239.053 137.75 239.6 138.109 240.694C138.411 240.168 138.815 239.764 139.32 239.483C139.826 239.196 140.383 239.053 140.992 239.053C142.805 239.053 143.729 240.043 143.766 242.022V247.663H142.828V242.092C142.823 241.337 142.659 240.777 142.336 240.413C142.018 240.048 141.497 239.866 140.773 239.866C140.102 239.876 139.534 240.095 139.07 240.522C138.607 240.944 138.349 241.459 138.297 242.069V247.663H137.359V242.022C137.354 241.298 137.182 240.759 136.844 240.405C136.51 240.045 135.995 239.866 135.297 239.866C134.708 239.866 134.203 240.035 133.781 240.374C133.359 240.707 133.047 241.204 132.844 241.866V247.663H131.906V239.209H132.805Z" fill="black" fill-opacity="0.65"/>
<g filter="url(#filter5_i_314_40)">
<rect x="577" y="89.333" width="492" height="49.7508" fill="#F1EFEF"/>
</g>
<rect x="577.5" y="89.833" width="491" height="48.7508" stroke="black"/>
<defs>
<filter id="filter0_d_314_40" x="0" y="0" width="1118" height="506" filterUnits="userSpaceOnUse" color-interpolation-filters="sRGB">
<feFlood flood-opacity="0" result="BackgroundImageFix"/>
<feColorMatrix in="SourceAlpha" type="matrix" values="0 0 0 0 0 0 0 0 0 0 0 0 0 0 0 0 0 0 127 0" result="hardAlpha"/>
<feOffset dx="4" dy="4"/>
<feGaussianBlur stdDeviation="2"/>
<feComposite in2="hardAlpha" operator="out"/>
<feColorMatrix type="matrix" values="0 0 0 0 0 0 0 0 0 0 0 0 0 0 0 0 0 0 0.25 0"/>
<feBlend mode="normal" in2="BackgroundImageFix" result="effect1_dropShadow_314_40"/>
<feBlend mode="normal" in="SourceGraphic" in2="effect1_dropShadow_314_40" result="shape"/>
</filter>
<filter id="filter1_d_314_40" x="41" y="398.499" width="269" height="76.4116" filterUnits="userSpaceOnUse" color-interpolation-filters="sRGB">
<feFlood flood-opacity="0" result="BackgroundImageFix"/>
<feColorMatrix in="SourceAlpha" type="matrix" values="0 0 0 0 0 0 0 0 0 0 0 0 0 0 0 0 0 0 127 0" result="hardAlpha"/>
<feOffset dx="9" dy="8"/>
<feGaussianBlur stdDeviation="4"/>
<feComposite in2="hardAlpha" operator="out"/>
<feColorMatrix type="matrix" values="0 0 0 0 0 0 0 0 0 0 0 0 0 0 0 0 0 0 0.25 0"/>
<feBlend mode="normal" in2="BackgroundImageFix" result="effect1_dropShadow_314_40"/>
<feBlend mode="normal" in="SourceGraphic" in2="effect1_dropShadow_314_40" result="shape"/>
</filter>
<filter id="filter2_i_314_40" x="41" y="89.333" width="507" height="53.751" filterUnits="userSpaceOnUse" color-interpolation-filters="sRGB">
<feFlood flood-opacity="0" result="BackgroundImageFix"/>
<feBlend mode="normal" in="SourceGraphic" in2="BackgroundImageFix" result="shape"/>
<feColorMatrix in="SourceAlpha" type="matrix" values="0 0 0 0 0 0 0 0 0 0 0 0 0 0 0 0 0 0 127 0" result="hardAlpha"/>
<feOffset dx="4" dy="4"/>
<feGaussianBlur stdDeviation="2"/>
<feComposite in2="hardAlpha" operator="arithmetic" k2="-1" k3="1"/>
<feColorMatrix type="matrix" values="0 0 0 0 0 0 0 0 0 0 0 0 0 0 0 0 0 0 0.25 0"/>
<feBlend mode="normal" in2="shape" result="effect1_innerShadow_314_40"/>
</filter>
<filter id="filter3_i_314_40" x="41" y="218.448" width="1032" height="143.776" filterUnits="userSpaceOnUse" color-interpolation-filters="sRGB">
<feFlood flood-opacity="0" result="BackgroundImageFix"/>
<feBlend mode="normal" in="SourceGraphic" in2="BackgroundImageFix" result="shape"/>
<feColorMatrix in="SourceAlpha" type="matrix" values="0 0 0 0 0 0 0 0 0 0 0 0 0 0 0 0 0 0 127 0" result="hardAlpha"/>
<feOffset dx="4" dy="4"/>
<feGaussianBlur stdDeviation="2"/>
<feComposite in2="hardAlpha" operator="arithmetic" k2="-1" k3="1"/>
<feColorMatrix type="matrix" values="0 0 0 0 0 0 0 0 0 0 0 0 0 0 0 0 0 0 0.25 0"/>
<feBlend mode="normal" in2="shape" result="effect1_innerShadow_314_40"/>
</filter>
<filter id="filter4_i_314_40" x="41" y="153.298" width="1032" height="52.5664" filterUnits="userSpaceOnUse" color-interpolation-filters="sRGB">
<feFlood flood-opacity="0" result="BackgroundImageFix"/>
<feBlend mode="normal" in="SourceGraphic" in2="BackgroundImageFix" result="shape"/>
<feColorMatrix in="SourceAlpha" type="matrix" values="0 0 0 0 0 0 0 0 0 0 0 0 0 0 0 0 0 0 127 0" result="hardAlpha"/>
<feOffset dx="4" dy="4"/>
<feGaussianBlur stdDeviation="2"/>
<feComposite in2="hardAlpha" operator="arithmetic" k2="-1" k3="1"/>
<feColorMatrix type="matrix" values="0 0 0 0 0 0 0 0 0 0 0 0 0 0 0 0 0 0 0.25 0"/>
<feBlend mode="normal" in2="shape" result="effect1_innerShadow_314_40"/>
</filter>
<filter id="filter5_i_314_40" x="577" y="89.333" width="496" height="53.751" filterUnits="userSpaceOnUse" color-interpolation-filters="sRGB">
<feFlood flood-opacity="0" result="BackgroundImageFix"/>
<feBlend mode="normal" in="SourceGraphic" in2="BackgroundImageFix" result="shape"/>
<feColorMatrix in="SourceAlpha" type="matrix" values="0 0 0 0 0 0 0 0 0 0 0 0 0 0 0 0 0 0 127 0" result="hardAlpha"/>
<feOffset dx="4" dy="4"/>
<feGaussianBlur stdDeviation="2"/>
<feComposite in2="hardAlpha" operator="arithmetic" k2="-1" k3="1"/>
<feColorMatrix type="matrix" values="0 0 0 0 0 0 0 0 0 0 0 0 0 0 0 0 0 0 0.25 0"/>
<feBlend mode="normal" in2="shape" result="effect1_innerShadow_314_40"/>
</filter>
</defs>
</svg>
