<svg width="48" height="48" viewBox="0 0 48 48" fill="none" xmlns="http://www.w3.org/2000/svg">
<path fill-rule="evenodd" clip-rule="evenodd" d="M6.5 2.5C4.29086 2.5 2.5 4.29086 2.5 6.5V15.5H16.5H45.5V6.5C45.5 4.29086 43.7091 2.5 41.5 2.5H6.5ZM15.5 17.5H2.5V41.5C2.5 43.7091 4.29086 45.5 6.5 45.5H15.5V17.5ZM17.5 45.5V17.5H45.5V41.5C45.5 43.7091 43.7091 45.5 41.5 45.5H17.5ZM16.5 47.5H6.5C3.18629 47.5 0.5 44.8137 0.5 41.5V16.5V6.5C0.5 3.18629 3.18629 0.5 6.5 0.5H41.5C44.8137 0.5 47.5 3.18629 47.5 6.5V16.5V41.5C47.5 44.8137 44.8137 47.5 41.5 47.5H16.5Z" fill="#FF8A00"/>
</svg>
