<svg width="38" height="52" viewBox="0 0 38 52" fill="none" xmlns="http://www.w3.org/2000/svg">
<path fill-rule="evenodd" clip-rule="evenodd" d="M2.5 6C2.5 3.79086 4.29086 2 6.5 2H31.5C33.7091 2 35.5 3.79086 35.5 6V46C35.5 48.2091 33.7091 50 31.5 50H6.5C4.29086 50 2.5 48.2091 2.5 46V6ZM6.5 0C3.18629 0 0.5 2.68629 0.5 6V46C0.5 49.3137 3.18629 52 6.5 52H31.5C34.8137 52 37.5 49.3137 37.5 46V6C37.5 2.68629 34.8137 0 31.5 0H6.5ZM19 40C18.4477 40 18 40.4477 18 41C18 41.5523 18.4477 42 19 42H19.025C19.5773 42 20.025 41.5523 20.025 41C20.025 40.4477 19.5773 40 19.025 40H19Z" fill="#FB8B07"/>
</svg>
