<svg width="45" height="48" viewBox="0 0 45 48" fill="none" xmlns="http://www.w3.org/2000/svg">
<path fill-rule="evenodd" clip-rule="evenodd" d="M6.06462 2.5C4.45514 2.5 2.8667 4.11992 2.8667 6.5V31.5C2.8667 33.8801 4.45514 35.5 6.06462 35.5H22.8563H39.648C41.2574 35.5 42.8459 33.8801 42.8459 31.5V6.5C42.8459 4.11992 41.2574 2.5 39.648 2.5H6.06462ZM23.8563 37.5H39.648C42.6754 37.5 44.8459 34.6428 44.8459 31.5V6.5C44.8459 3.35723 42.6754 0.5 39.648 0.5H6.06462C3.03721 0.5 0.866699 3.35723 0.866699 6.5V31.5C0.866699 34.6428 3.03721 37.5 6.06462 37.5H21.8563V45.5H14.4604C13.9082 45.5 13.4604 45.9477 13.4604 46.5C13.4604 47.0523 13.9082 47.5 14.4604 47.5L22.8563 47.5L31.2521 47.5C31.8044 47.5 32.2521 47.0523 32.2521 46.5C32.2521 45.9477 31.8044 45.5 31.2521 45.5H23.8563V37.5Z" fill="#FF8A00"/>
</svg>
