<svg width="52" height="42" viewBox="0 0 52 42" fill="none" xmlns="http://www.w3.org/2000/svg">
<path fill-rule="evenodd" clip-rule="evenodd" d="M2.03135 5.50123C2.27928 3.53606 3.97118 2 6.00009 2H46.0001C48.029 2 49.7209 3.53606 49.9688 5.50123L26.0001 22.2793L2.03135 5.50123ZM0.000107569 5.98459C-2.6258e-05 5.99381 -3.2626e-05 6.00303 8.79765e-05 6.01225V36C8.79765e-05 39.3023 2.6978 42 6.00009 42H46.0001C49.3024 42 52.0001 39.3023 52.0001 36V6.01236M50.0001 7.92066V36C50.0001 38.1977 48.1978 40 46.0001 40H6.00009C3.80237 40 2.00009 38.1977 2.00009 36V7.92066L25.4266 24.3192C25.7709 24.5603 26.2292 24.5603 26.5735 24.3192L50.0001 7.92066ZM52.0001 5.98446C51.9916 2.68926 49.2972 0 46.0001 0H6.00009C2.70294 0 0.00848599 2.68933 0.000107569 5.98459" fill="#FB8B07"/>
</svg>
