<svg width="123" height="105" viewBox="0 0 123 105" fill="none" xmlns="http://www.w3.org/2000/svg">
<g clip-path="url(#clip0_56_129)">
<path d="M79.8858 68.9082V75.8618C79.8889 76.5074 79.7335 77.1463 79.4298 77.7378C79.126 78.3293 78.6805 78.8602 78.1217 79.2966C77.563 79.733 76.9033 80.0653 76.185 80.2721C75.4667 80.4789 74.7056 80.5557 73.9504 80.4976C65.5723 79.7226 57.5246 77.2854 50.4539 73.3817C43.8755 69.823 38.2981 65.0748 34.118 59.4744C29.5166 53.4275 26.6531 46.543 25.7594 39.3784C25.6914 38.7374 25.7808 38.0914 26.0221 37.4815C26.2634 36.8716 26.6513 36.3111 27.1609 35.8358C27.6706 35.3605 28.2909 34.9807 28.9825 34.7207C29.674 34.4606 30.4215 34.326 31.1775 34.3254H39.3455C40.6668 34.3143 41.9477 34.7127 42.9496 35.4462C43.9515 36.1797 44.6058 37.1983 44.7908 38.3122C45.1355 40.5375 45.7749 42.7225 46.6966 44.8254C47.0629 45.655 47.1422 46.5567 46.9251 47.4235C46.7079 48.2903 46.2034 49.0859 45.4714 49.7161L42.0137 52.6599C45.8895 58.4628 51.5333 63.2675 58.3496 66.5671L61.8074 63.6234C62.5476 63.0002 63.4822 62.5708 64.5004 62.3859C65.5186 62.201 66.5777 62.2685 67.5522 62.5804C70.0224 63.3651 72.5889 63.9094 75.2028 64.2029C76.5254 64.3617 77.7333 64.9289 78.5967 65.7964C79.4601 66.664 79.9189 67.7715 79.8858 68.9082Z" stroke="#079504" stroke-width="6" stroke-linecap="round" stroke-linejoin="round"/>
<path d="M99.9373 57.6877C99.9564 64.3162 98.2443 70.855 94.9405 76.7716C91.0231 83.8614 85.0009 89.8248 77.5483 93.9936C70.0958 98.1625 61.5072 100.372 52.7447 100.375C45.4167 100.393 38.1878 98.8439 31.6468 95.8554L0 105.397L10.5489 76.7716C7.24508 70.855 5.53297 64.3162 5.55207 57.6877C5.55547 49.7617 7.99838 41.993 12.6072 35.2519C17.216 28.5108 23.8087 23.0634 31.6468 19.52C38.1878 16.5315 45.4167 14.9829 52.7447 15.0001H55.5207C67.0932 15.5776 78.0235 19.9959 86.2189 27.409C94.4143 34.822 99.2989 44.7089 99.9373 55.1767V57.6877Z" stroke="#079504" stroke-width="7" stroke-linecap="round" stroke-linejoin="round"/>
</g>
<defs>
<clipPath id="clip0_56_129">
<rect width="123" height="105" fill="white"/>
</clipPath>
</defs>
</svg>
